<svg version="1.1" viewBox="0.0 0.0 960.0 720.0" fill="none" stroke="none" stroke-linecap="square" stroke-miterlimit="10" xmlns:xlink="http://www.w3.org/1999/xlink" xmlns="http://www.w3.org/2000/svg"><clipPath id="p.0"><path d="m0 0l960.0 0l0 720.0l-960.0 0l0 -720.0z" clip-rule="nonzero"/></clipPath><g clip-path="url(#p.0)"><path fill="#000000" fill-opacity="0.0" d="m0 0l960.0 0l0 720.0l-960.0 0z" fill-rule="evenodd"/><path fill="#6d9eeb" d="m577.22046 411.32855l0 0c-7.914612 -16.78598 -0.57489014 -36.89438 16.393738 -44.91339l0 0c8.148621 -3.85083 17.473328 -4.341797 25.92279 -1.3648376c8.449463 2.9769592 15.331543 9.177948 19.132324 17.238861l0 0c7.914612 16.78598 0.57489014 36.89438 -16.393738 44.91339l0 0c-16.968628 8.019012 -37.14044 0.9119568 -45.055115 -15.874023z" fill-rule="evenodd"/><path fill="#3c78d8" d="m147.66264 185.20248l0 0c-10.067642 -21.588776 -0.72940063 -47.254578 20.857529 -57.326164l0 0l0 0c10.366425 -4.836548 22.22882 -5.3566055 32.977585 -1.4457703c10.748779 3.9108353 19.503464 11.932198 24.33812 22.299492l195.00641 418.16656c10.067627 21.588806 0.72940063 47.254578 -20.857544 57.32617l0 0l0 0c-21.586945 10.071594 -47.248047 0.7350464 -57.315674 -20.853699z" fill-rule="evenodd"/><path fill="#6d9eeb" d="m109.648384 388.51172l0 0c39.2004 -102.577515 145.26816 -171.47852 264.61426 -171.89189c119.3461 -0.4133911 225.98718 67.75084 266.04462 170.05382l-64.93762 21.05481l0 0c-30.953003 -74.12976 -111.230865 -123.273346 -200.86801 -122.96512c-89.63718 0.30822754 -169.47736 50.00238 -199.77289 124.34274z" fill-rule="evenodd"/><path fill="#4a86e8" d="m537.7968 148.41545l0 0c10.080872 -21.62146 35.780945 -30.977432 57.40265 -20.897148l0 0l0 0c10.383118 4.840721 18.417908 13.607811 22.336792 24.372597c3.9188232 10.764801 3.4008179 22.645493 -1.4401855 33.02849l-194.92703 418.0797c-10.080872 21.62146 -35.780914 30.977478 -57.40265 20.897156l0 0l0 0c-21.621704 -10.080261 -30.977448 -35.779602 -20.896576 -57.401062z" fill-rule="evenodd"/><path fill="#6d9eeb" d="m112.31233 411.32855l0 0c-7.914627 -16.78598 -0.57492065 -36.89438 16.393707 -44.91339l0 0c8.148621 -3.85083 17.473328 -4.341797 25.922806 -1.3648376c8.449463 2.9769592 15.3315735 9.177948 19.132309 17.238861l0 0c7.914627 16.78598 0.57492065 36.89438 -16.393707 44.91339l0 0c-16.968613 8.019012 -37.14048 0.9119568 -45.055115 -15.874023z" fill-rule="evenodd"/></g></svg>